<svg width="23" height="23" viewBox="0 0 23 23" fill="none" xmlns="http://www.w3.org/2000/svg">
<path d="M18.3921 9.19655C20.9228 9.20506 22.9814 7.1604 22.9899 4.62979C22.9912 4.24457 22.9439 3.86092 22.8492 3.48751C22.7981 3.28213 22.5902 3.15714 22.3848 3.20821C22.3173 3.22507 22.2559 3.25991 22.2067 3.30893L19.8215 5.69247L17.929 5.06183L17.2979 3.16991L19.6831 0.784313C19.8327 0.634573 19.8325 0.391995 19.6828 0.242412C19.6334 0.193077 19.5713 0.158085 19.5034 0.141377C17.0492 -0.480122 14.556 1.00546 13.9345 3.45946C13.8401 3.83176 13.7929 4.21446 13.7942 4.59858C13.7951 4.90027 13.8262 5.20101 13.8873 5.49639L5.4958 13.8875C5.2004 13.8265 4.89965 13.7955 4.59811 13.7944C2.0586 13.7944 0 15.8529 0 18.3923C0 20.9316 2.0586 22.9901 4.59811 22.9901C7.13747 22.9901 9.19607 20.9316 9.19607 18.3923C9.19512 18.0906 9.16391 17.7899 9.10291 17.4945L11.1119 15.4856L11.9905 16.3642C12.1402 16.5138 12.3826 16.5138 12.5324 16.3642L12.7239 16.1725C12.8919 16.0056 13.1635 16.0056 13.3316 16.1725C13.4994 16.3399 13.4997 16.6117 13.3323 16.7795C13.3322 16.7797 13.3319 16.78 13.3316 16.7803L13.14 16.9718C12.9904 17.1214 12.9904 17.364 13.14 17.5136L17.7109 22.0843C18.9131 23.2975 20.8711 23.3063 22.0844 22.1041C23.2975 20.902 23.3063 18.9438 22.1041 17.7308C22.0976 17.7242 22.091 17.7175 22.0844 17.7109L17.5135 13.1404C17.3639 12.9908 17.1214 12.9908 16.9718 13.1404L16.7803 13.3319C16.6121 13.499 16.3406 13.499 16.1724 13.3319C16.0047 13.1645 16.0043 12.8928 16.1717 12.725C16.172 12.7247 16.1723 12.7246 16.1724 12.7243L16.3641 12.5326C16.5137 12.383 16.5137 12.1404 16.3641 11.9909L15.4855 11.1123L17.4945 9.10339C17.7899 9.16439 18.0906 9.1956 18.3921 9.19655ZM19.8976 22.2239C19.6193 22.2234 19.3433 22.1732 19.0827 22.0753L22.0752 19.0827C22.5268 20.2839 21.9192 21.6237 20.7179 22.0753C20.4558 22.1738 20.1779 22.2242 19.8976 22.2239ZM15.5568 12.2656C15.1324 12.7717 15.1989 13.5261 15.7051 13.9502C16.1499 14.323 16.7982 14.3227 17.2426 13.9491L21.5426 18.2528C21.5893 18.2996 21.6329 18.349 21.6752 18.3991L18.3991 21.6751C18.3488 21.633 18.2995 21.5893 18.2526 21.5425L13.9493 17.239C14.3736 16.7329 14.3071 15.9785 13.801 15.5543C13.3561 15.1814 12.7077 15.1819 12.2633 15.5553L11.6503 14.9423L14.9436 11.654L15.5568 12.2656ZM17.104 8.41191L8.41172 17.1022C8.31636 17.1974 8.27806 17.3356 8.31053 17.4663C8.83621 19.5307 7.58876 21.6303 5.52417 22.1558C3.45974 22.6815 1.36 21.4341 0.834315 19.3696C0.30879 17.3052 1.55624 15.2055 3.62083 14.6799C4.24535 14.521 4.89965 14.521 5.52417 14.6799C5.65484 14.7119 5.79276 14.6736 5.88828 14.5788L14.5785 5.8884C14.6737 5.79319 14.712 5.65496 14.6793 5.52445C14.1572 3.4842 15.3879 1.40707 17.4283 0.884876C17.8138 0.786362 18.2126 0.748533 18.6098 0.77328L16.5886 2.79524C16.486 2.8977 16.45 3.04948 16.4959 3.18709L17.2621 5.48615C17.3004 5.60042 17.3903 5.69027 17.5047 5.72825L19.8038 6.49461C19.9413 6.54047 20.0931 6.50469 20.1957 6.40224L22.2169 4.38107C22.2215 4.4542 22.2239 4.52655 22.2239 4.59858C22.2346 6.70393 20.5366 8.41932 18.4312 8.43019C18.1057 8.43177 17.7813 8.39173 17.4661 8.31103C17.3354 8.2784 17.1972 8.31655 17.102 8.41175H17.104V8.41191Z" fill="#2F4260"/>
</svg>
