<svg width="20" height="19" viewBox="0 0 20 19" fill="none" xmlns="http://www.w3.org/2000/svg">
<path d="M18.1424 6.46664H16.0005V2.86122C16.0005 1.63247 15.0485 0.632812 13.8783 0.632812H2.12195C0.95192 0.632812 0 1.63247 0 2.86122V9.60731C0 10.836 0.95192 11.8356 2.12195 11.8356H3.66627V14.1682C3.66627 14.4518 3.82889 14.7074 4.07845 14.8159C4.16108 14.8518 4.24782 14.8693 4.33381 14.8693C4.50755 14.8693 4.67839 14.798 4.80606 14.6639L6.66593 12.7106V13.9368C6.66593 15.0125 7.49927 15.8877 8.52364 15.8877H13.6928L15.8606 18.1641C15.9882 18.2983 16.1591 18.3695 16.3329 18.3695C16.4189 18.3695 16.5055 18.3521 16.5882 18.3162C16.8377 18.2077 17.0004 17.9521 17.0004 17.6685V15.8877H18.1425C19.1668 15.8877 20.0001 15.0125 20.0001 13.9368V8.41738C20 7.34171 19.1667 6.46664 18.1424 6.46664ZM4.33381 10.4335H2.12195C1.68828 10.4335 1.33535 10.0629 1.33535 9.60738V2.86122C1.33535 2.40565 1.68822 2.03493 2.12195 2.03493H13.8784C14.3122 2.03493 14.6652 2.40558 14.6652 2.86122V9.60731C14.6652 10.0628 14.3123 10.4335 13.8784 10.4335H7.22243C7.04539 10.4335 6.87556 10.5073 6.75024 10.6389L5.00149 12.4754V11.1345C5.00149 10.7474 4.70256 10.4335 4.33381 10.4335ZM18.6647 13.9368C18.6647 14.2393 18.4305 14.4855 18.1424 14.4855H16.3327C15.964 14.4855 15.665 14.7993 15.665 15.1865V15.9758L14.4414 14.6909C14.3163 14.5594 14.1464 14.4855 13.9693 14.4855H8.52358C8.23556 14.4855 8.00122 14.2393 8.00122 13.9368V11.8356H13.8783C15.0485 11.8356 16.0005 10.8359 16.0005 9.60724V7.86869H18.1424C18.4304 7.86869 18.6647 8.11475 18.6647 8.41731V13.9368Z" fill="#369F2A"/>
</svg>
