<svg width="21" height="22" viewBox="0 0 21 22" fill="none" xmlns="http://www.w3.org/2000/svg">
<path d="M19.8019 4.7219C19.7694 4.7219 19.7373 4.72359 19.7056 4.72682V4.06546C19.7056 1.82371 17.8819 0 15.6402 0H5.13244C2.89081 0 1.06697 1.82371 1.06697 4.06546V4.72682C1.03526 4.72372 1.00316 4.7219 0.97068 4.7219C0.434476 4.7219 0 5.15651 0 5.69258V10.546C0 11.0821 0.434476 11.5167 0.97068 11.5167C1.00316 11.5167 1.03526 11.515 1.06697 11.5117V19.2642C1.06697 19.8003 1.50145 20.2349 2.03765 20.2349H3.83587V21.0293C3.83587 21.5654 4.27034 22 4.80655 22H5.98301C6.51921 22 6.95369 21.5654 6.95369 21.0293V20.2349H13.819V21.0293C13.819 21.5654 14.2535 22 14.7897 22H15.9663C16.5025 22 16.9369 21.5654 16.9369 21.0293V20.2349H18.735C19.2712 20.2349 19.7057 19.8003 19.7057 19.2642V11.5117C19.7374 11.5148 19.7695 11.5167 19.802 11.5167C20.3382 11.5167 20.7727 11.0821 20.7727 10.546V5.69258C20.7725 5.15651 20.3381 4.7219 19.8019 4.7219ZM3.00833 7.5493H17.7642V12.9474H3.00833V7.5493ZM5.13244 1.94136H15.6401C16.8113 1.94136 17.7641 2.89418 17.7641 4.06546V5.60794H3.00833V4.06546C3.00833 2.89418 3.96115 1.94136 5.13244 1.94136ZM3.00833 18.2936V14.8888H17.7642V18.2936H3.00833Z" fill="#369F2A"/>
</svg>
