<svg width="19" height="18" viewBox="0 0 19 18" fill="none" xmlns="http://www.w3.org/2000/svg">
<path d="M18.171 1.84634H16.8385V1.61515C16.8385 0.734418 16.0716 0.0078125 15.1419 0.0078125H3.83486C2.9052 0.0078125 2.13823 0.734418 2.13823 1.61515V1.88304H0.809582C0.364118 1.88671 0 2.23167 0 2.65001V6.01515C0 6.43717 0.364118 6.78213 0.809582 6.78213C1.21244 6.78213 1.57655 6.43717 1.57655 6.05552V3.41699H2.1421V15.0463C2.1421 15.6188 2.46748 16.1252 2.95168 16.4115V17.2262C2.95168 17.6482 3.3158 17.9931 3.76126 17.9931C4.20673 17.9931 4.57085 17.6482 4.57085 17.2262V16.6537H14.4253V17.2262C14.4253 17.6482 14.7894 17.9931 15.2349 17.9931C15.6803 17.9931 16.0018 17.6482 16.0444 17.2262V16.4115C16.5286 16.1252 16.854 15.6188 16.854 15.0463V3.37662H17.3808V6.01515C17.3808 6.43717 17.745 6.78213 18.1904 6.78213C18.6359 6.78213 19 6.43717 19 6.01515V2.61332C18.9806 2.1913 18.6165 1.84634 18.171 1.84634ZM3.83486 15.1638C3.75352 15.1638 3.71478 15.1271 3.71478 15.05V11.8353H15.2659V15.05C15.2659 15.1271 15.2271 15.1638 15.1458 15.1638H3.83486ZM3.83486 1.50506H15.1458C15.2271 1.50506 15.2659 1.54176 15.2659 1.61882V9.60414L11.8726 7.1858V6.01882C11.8726 5.5968 11.5085 5.25185 11.063 5.25185C10.6175 5.25185 10.2534 5.5968 10.2534 6.01882V9.11607C10.2534 9.53809 10.6175 9.88304 11.063 9.88304C11.5085 9.88304 11.83 9.53809 11.8726 9.11607V9.03167L13.6544 10.3014H5.71356L7.51091 9.00965V9.11607C7.51091 9.53809 7.87503 9.88304 8.32049 9.88304C8.72334 9.88304 9.08746 9.53809 9.13007 9.11607V6.01882C9.13007 5.5968 8.76595 5.25185 8.32049 5.25185C7.87503 5.25185 7.51091 5.5968 7.51091 6.01882V7.15644L3.71478 9.86102V1.61882C3.71478 1.54176 3.75739 1.50506 3.83486 1.50506Z" fill="#369F2A"/>
</svg>
