<svg width="21" height="17" viewBox="0 0 21 17" fill="none" xmlns="http://www.w3.org/2000/svg">
<path d="M19.2417 5.65748L19.568 5.3311C19.846 5.05308 19.846 4.60232 19.568 4.32437C19.2899 4.04642 18.8393 4.04642 18.5612 4.32437L18.2268 4.65889L17.5844 2.08946C17.3538 1.16751 16.4289 0.445312 15.4786 0.445312H5.5213C4.57107 0.445312 3.64608 1.16751 3.4155 2.08953L2.7732 4.65889L2.43876 4.32437C2.16067 4.04642 1.71005 4.04642 1.43203 4.32437C1.15401 4.60239 1.15401 5.05315 1.43203 5.3311L1.75834 5.65748C0.718101 6.16742 0 7.23708 0 8.47155V10.972C0 11.9811 0.480172 12.8796 1.22344 13.4529V14.7004C1.22344 15.721 2.05369 16.5513 3.07434 16.5513H4.46699C5.48758 16.5513 6.31782 15.721 6.31782 14.7004V14.1042H14.6821V14.7004C14.6821 15.721 15.5124 16.5513 16.5329 16.5513H17.9256C18.9462 16.5513 19.7765 15.721 19.7765 14.7004V13.453C20.5198 12.8798 21 11.9812 21 10.972V8.47155C21 7.23708 20.2819 6.16742 19.2417 5.65748ZM4.12569 5.11884L4.7967 2.43487C4.86938 2.14398 5.22158 1.869 5.5213 1.869H15.4786C15.7783 1.869 16.1305 2.14398 16.2032 2.43487L16.8742 5.11891C16.8928 5.19336 16.8891 5.25672 16.8643 5.28854C16.8393 5.32035 16.7787 5.33937 16.7021 5.33937H4.29779C4.22114 5.33937 4.16055 5.32035 4.13559 5.28854C4.11084 5.25672 4.10716 5.19336 4.12569 5.11884ZM1.42376 8.47155C1.42376 7.5296 2.19022 6.76313 3.13218 6.76313H17.8678C18.8098 6.76313 19.5762 7.5296 19.5762 8.47155V10.972C19.5762 11.914 18.8098 12.6805 17.8678 12.6805H3.13218C2.19022 12.6805 1.42376 11.914 1.42376 10.972V8.47155ZM4.89406 14.7004C4.89406 14.9318 4.69841 15.1275 4.46699 15.1275H3.07427C2.84278 15.1275 2.64713 14.9318 2.64713 14.7004V14.0665C2.8053 14.0912 2.96715 14.1042 3.13211 14.1042H4.89399V14.7004H4.89406ZM18.3527 14.7004C18.3527 14.9318 18.1571 15.1275 17.9256 15.1275H16.5329C16.3015 15.1275 16.1059 14.9318 16.1059 14.7004V14.1042H17.8679C18.0328 14.1042 18.1946 14.0911 18.3528 14.0665V14.7004H18.3527Z" fill="#369F2A"/>
</svg>
